# xmcd
#
# Track frame offsets: 
#        150
#        13450
#        27271
#        41431
#        52608
#        67291
#        80306
#        93144
#        107529
#        120705
#        132387
#        145272
#        157827
#        169501
#        182657
#        196297
#        208839
#        221453
#        234038
#        246339
#        257904
#        268614
#
# Disc length: 3762 seconds
#
# Revision: 0
# Processed by: cddbd v1.5.2PL0 Copyright (c) Steve Scherf et al.
# Submitted via: ExactAudioCopy v1.3
#
DISCID=2d0eb016
DTITLE=Various Artist - Most Beautiful Country Love Songs
DYEAR=2017
DGENRE=Country
TTITLE0=Hank Williams - Hey Dood Lookin
TTITLE1=Ernest Tubb - Goodnight Irene (with Red Foley)
TTITLE2=Gene Autry - Mexicali Rose 
TTITLE3=Hank Williams - Crazy Heart 
TTITLE4=Jimmie Rodgers - The Soldiers Sweetheart
TTITLE5=Marty Brabbins - Your Breaking My Heart
TTITLE6=Ernest Tubb - Have You Ever Been Lonely (Have You Ever Been Bl
TTITLE6=ue)
TTITLE7=Gene Autry - Take Me Back To My Boots And Saddle
TTITLE8=Hank Williams - Wedding Bells
TTITLE9=Marty Brabbins - Love Me or Leave Me Alone
TTITLE10=Slim Whitman - Darlin Dont Cry 
TTITLE11=The Carter Family - Single Girl Married Girl
TTITLE12=Ernest Tubb - Throw Your Love My Way
TTITLE13=Hank Williams - Cant Get You Of My Mind
TTITLE14=Jimmie Rodgers - My Little Lady
TTITLE15=Marty Robbins - Your Hearts Turn To Break
TTITLE16=Slim Whitman - Im Crying For You
TTITLE17=Gene Autry - Have I Told You Lately
TTITLE18=Hank Williams - Last Night I Heard You Crying In Your Sleep
TTITLE19=Marty Brabbins - A Halfway Dance With You 
TTITLE20=Roy Rogers - You Waited Too Long
TTITLE21=Slim Whitman - Tears Can Never Drown The Flame
EXTD=
EXTT0=
EXTT1=
EXTT2=
EXTT3=
EXTT4=
EXTT5=
EXTT6=
EXTT7=
EXTT8=
EXTT9=
EXTT10=
EXTT11=
EXTT12=
EXTT13=
EXTT14=
EXTT15=
EXTT16=
EXTT17=
EXTT18=
EXTT19=
EXTT20=
EXTT21=
PLAYORDER=
